<svg width="42" height="42" viewBox="0 0 42 42" fill="none" xmlns="http://www.w3.org/2000/svg">
<g clip-path="url(#clip0_9_51)">
<path d="M5.25 36.75H36.75" stroke="black" stroke-width="2" stroke-linecap="round" stroke-linejoin="round"/>
<path d="M8.75 36.75V8.75C8.75 7.82174 9.11875 6.9315 9.77513 6.27513C10.4315 5.61875 11.3217 5.25 12.25 5.25H29.75C30.6783 5.25 31.5685 5.61875 32.2249 6.27513C32.8813 6.9315 33.25 7.82174 33.25 8.75V36.75" stroke="black" stroke-width="2" stroke-linecap="round" stroke-linejoin="round"/>
<path d="M15.75 36.75V29.75C15.75 28.8217 16.1187 27.9315 16.7751 27.2751C17.4315 26.6187 18.3217 26.25 19.25 26.25H22.75C23.6783 26.25 24.5685 26.6187 25.2249 27.2751C25.8813 27.9315 26.25 28.8217 26.25 29.75V36.75" stroke="black" stroke-width="2" stroke-linecap="round" stroke-linejoin="round"/>
<path d="M17.5 15.75H24.5" stroke="black" stroke-width="2" stroke-linecap="round" stroke-linejoin="round"/>
<path d="M21 12.25V19.25" stroke="black" stroke-width="2" stroke-linecap="round" stroke-linejoin="round"/>
</g>
<defs>
<clipPath id="clip0_9_51">
<rect width="42" height="42" fill="white"/>
</clipPath>
</defs>
</svg>
