<svg width="42" height="42" viewBox="0 0 42 42" fill="none" xmlns="http://www.w3.org/2000/svg">
<g clip-path="url(#clip0_3_270)">
<path d="M36.75 5.25L25.375 36.75C25.2982 36.9175 25.1749 37.0595 25.0198 37.1591C24.8647 37.2586 24.6843 37.3115 24.5 37.3115C24.3157 37.3115 24.1353 37.2586 23.9802 37.1591C23.8251 37.0595 23.7018 36.9175 23.625 36.75L17.5 24.5L5.25 18.375C5.08245 18.2982 4.94047 18.1749 4.84093 18.0198C4.74139 17.8647 4.68848 17.6843 4.68848 17.5C4.68848 17.3157 4.74139 17.1353 4.84093 16.9802C4.94047 16.825 5.08245 16.7018 5.25 16.625L36.75 5.25Z" stroke="black" stroke-width="2" stroke-linecap="round" stroke-linejoin="round"/>
</g>
<defs>
<clipPath id="clip0_3_270">
<rect width="42" height="42" fill="white"/>
</clipPath>
</defs>
</svg>
