<svg width="42" height="42" viewBox="0 0 42 42" fill="none" xmlns="http://www.w3.org/2000/svg">
<g clip-path="url(#clip0_3_22)">
<path d="M33.25 38.5H8.75C7.35761 38.5 6.02226 37.9469 5.03769 36.9623C4.05312 35.9777 3.5 34.6424 3.5 33.25V5.25C3.5 4.78587 3.68437 4.34075 4.01256 4.01256C4.34075 3.68437 4.78587 3.5 5.25 3.5H29.75C30.2141 3.5 30.6593 3.68437 30.9874 4.01256C31.3156 4.34075 31.5 4.78587 31.5 5.25V17.5H38.5V33.25C38.5 34.6424 37.9469 35.9777 36.9623 36.9623C35.9777 37.9469 34.6424 38.5 33.25 38.5ZM31.5 21V33.25C31.5 33.7141 31.6844 34.1593 32.0126 34.4874C32.3407 34.8156 32.7859 35 33.25 35C33.7141 35 34.1593 34.8156 34.4874 34.4874C34.8156 34.1593 35 33.7141 35 33.25V21H31.5ZM8.75 10.5V21H19.25V10.5H8.75ZM8.75 22.75V26.25H26.25V22.75H8.75ZM8.75 28V31.5H26.25V28H8.75ZM12.25 14H15.75V17.5H12.25V14Z" fill="black"/>
</g>
<defs>
<clipPath id="clip0_3_22">
<rect width="42" height="42" fill="white"/>
</clipPath>
</defs>
</svg>
