<svg width="42" height="42" viewBox="0 0 42 42" fill="none" xmlns="http://www.w3.org/2000/svg">
<g clip-path="url(#clip0_3_116)">
<path d="M7 10.7502V33.1922L15.8637 29.3947L26.3637 34.6447L35 30.94V8.49974L37.2803 7.52324C37.4134 7.46616 37.5586 7.44304 37.7029 7.45594C37.8472 7.46885 37.9861 7.51737 38.107 7.59717C38.2279 7.67697 38.3271 7.78554 38.3957 7.91314C38.4643 8.04074 38.5001 8.18337 38.5 8.32824V33.25L26.25 38.5L15.75 33.25L4.71975 37.9767C4.5866 38.0338 4.44136 38.0569 4.29707 38.044C4.15277 38.0311 4.01394 37.9826 3.89303 37.9028C3.77212 37.823 3.67291 37.7144 3.60431 37.5868C3.53571 37.4592 3.49987 37.3166 3.5 37.1717V12.25L7 10.7502ZM28.4253 19.6752L21 27.0987L13.5747 19.6752C12.1065 18.2067 11.1066 16.3358 10.7016 14.299C10.2966 12.2623 10.5047 10.1512 11.2994 8.23266C12.0942 6.31414 13.44 4.67437 15.1667 3.5207C16.8934 2.36702 18.9234 1.75125 21 1.75125C23.0766 1.75125 25.1066 2.36702 26.8333 3.5207C28.56 4.67437 29.9058 6.31414 30.7006 8.23266C31.4953 10.1512 31.7034 12.2623 31.2984 14.299C30.8934 16.3358 29.8935 18.2067 28.4253 19.6752ZM21 22.1497L25.949 17.199C26.9282 16.2201 27.5951 14.9728 27.8653 13.6149C28.1356 12.257 27.9971 10.8494 27.4674 9.5702C26.9376 8.291 26.0404 7.19762 24.8892 6.42836C23.738 5.6591 22.3846 5.2485 21 5.2485C19.6154 5.2485 18.262 5.6591 17.1108 6.42836C15.9596 7.19762 15.0624 8.291 14.5326 9.5702C14.0029 10.8494 13.8644 12.257 14.1347 13.6149C14.4049 14.9728 15.0718 16.2201 16.051 17.199L21 22.1497Z" fill="black"/>
</g>
<defs>
<clipPath id="clip0_3_116">
<rect width="42" height="42" fill="white"/>
</clipPath>
</defs>
</svg>
