<svg width="42" height="42" viewBox="0 0 42 42" fill="none" xmlns="http://www.w3.org/2000/svg">
<g clip-path="url(#clip0_3_17)">
<path d="M35 38.5H7V35C7 32.6794 7.92187 30.4538 9.56282 28.8128C11.2038 27.1719 13.4294 26.25 15.75 26.25H26.25C28.5706 26.25 30.7962 27.1719 32.4372 28.8128C34.0781 30.4538 35 32.6794 35 35V38.5ZM21 22.75C19.6211 22.75 18.2557 22.4784 16.9818 21.9507C15.7079 21.4231 14.5504 20.6496 13.5754 19.6746C12.6004 18.6996 11.8269 17.5421 11.2993 16.2682C10.7716 14.9943 10.5 13.6289 10.5 12.25C10.5 10.8711 10.7716 9.50574 11.2993 8.23182C11.8269 6.95791 12.6004 5.80039 13.5754 4.82538C14.5504 3.85036 15.7079 3.07694 16.9818 2.54926C18.2557 2.02159 19.6211 1.75 21 1.75C23.7848 1.75 26.4555 2.85625 28.4246 4.82538C30.3938 6.79451 31.5 9.46523 31.5 12.25C31.5 15.0348 30.3938 17.7055 28.4246 19.6746C26.4555 21.6438 23.7848 22.75 21 22.75Z" fill="black"/>
</g>
<defs>
<clipPath id="clip0_3_17">
<rect width="42" height="42" fill="white"/>
</clipPath>
</defs>
</svg>
