<svg width="42" height="42" viewBox="0 0 42 42" fill="none" xmlns="http://www.w3.org/2000/svg">
<g clip-path="url(#clip0_3_27)">
<path d="M37.9365 13.965L35.4603 16.4378L31.7502 12.7278L28.0368 16.4378L34.223 22.6258L31.7485 25.1003L30.5112 23.863L19.3743 35H9.4745L5.76275 38.7118L3.28825 36.2373L7 32.5255V22.6258L18.137 11.4888L16.8997 10.2515L19.3743 7.77701L25.5623 13.9633L29.2722 10.2515L25.5623 6.53976L28.0368 4.06351L37.9365 13.965ZM28.0368 21.3885L20.6115 13.9633L18.137 16.4378L21.8487 20.1513L19.3743 22.6258L15.6625 18.914L13.188 21.3885L16.898 25.1003L14.4253 27.5748L10.7117 23.863L10.5 24.0748V31.5H17.9253L28.0368 21.3885Z" fill="black"/>
</g>
<defs>
<clipPath id="clip0_3_27">
<rect width="42" height="42" fill="white"/>
</clipPath>
</defs>
</svg>
